<svg xmlns="http://www.w3.org/2000/svg" viewBox="0 0 543.85 201.34"><defs><style>.cls-1{fill:#f6580a;}.cls-2{fill:#fbeddc;}</style></defs><g id="Capa_2" data-name="Capa 2"><g id="Capa_1-2" data-name="Capa 1"><path class="cls-1" d="M.19,131.38c0-6.33.18-12.66-.06-19-.14-3.57,1.19-4.64,4.61-4.49,5.15.22,10.33.19,15.48,0,3.55-.15,5.1.83,5,4.75-.28,7.64.07,15.31-.13,23a7.56,7.56,0,0,0,4.28,7.63c16.14,9.18,32.2,18.5,48.26,27.83,2.52,1.47,4.69,1.68,7.38.1q24.66-14.44,49.53-28.58a6,6,0,0,0,3.37-6c-.1-8,.1-16-.08-24-.08-3.63,1-5,4.84-4.7a135.48,135.48,0,0,0,15.48,0c3.12-.13,4.57.86,4.54,4.14q-.12,19.73,0,39.45a5.93,5.93,0,0,1-3.35,5.59q-37.73,21.69-75.4,43.49c-3.39,2-5.42-.37-7.64-1.64-19.87-11.36-39.66-22.87-59.48-34.33C12.31,162,7.88,159.43,3.38,157a5.54,5.54,0,0,1-3.22-5.6c.16-6.65,0-13.32,0-20Z"/><path class="cls-1" d="M.19,68.87c0-5.66.43-11.37-.13-17C-.42,47,1.85,44.64,5.63,42.5c17.31-9.83,34.54-19.78,51.78-29.71,6.46-3.72,12.94-7.41,19.3-11.3,3.19-1.94,5.88-2,9.24-.06q35.46,20.69,71.17,41c4.19,2.37,5.68,5.15,5.52,10-.37,11.65-.27,23.32,0,35,.08,4.2-.94,6.09-5.54,5.71a117,117,0,0,0-15-.08c-3.37.16-4.36-1.17-4.3-4.33.15-7.82-.12-15.66.18-23.48.15-3.71-1.27-5.65-4.39-7.42q-24-13.65-47.8-27.73c-3.1-1.84-5.53-1.81-8.6,0C61,39.47,44.74,48.79,28.48,58.1a6.17,6.17,0,0,0-3.4,6.07c.11,7.83-.11,15.66.09,23.48.1,3.76-.93,5.53-5,5.32-5.32-.27-10.66-.14-16,0-3,.08-4.11-1.09-4-4.12C.3,82.2.18,75.53.19,68.87Z"/><path class="cls-1" d="M537.86,147.8a27.43,27.43,0,0,1-3.21,2.22c-3.83,1.92-3,4.15-1,7.1,3.31,4.93,6.14,10.18,9.31,15.21,1.86,3,.75,3.69-2.24,3.66-5.47-.05-10.94-.05-16.4.13a5.5,5.5,0,0,1-5.79-3.51c-1.28-2.67-2.91-5.18-4.39-7.75-.44-2.7-2.1-4.84-3.33-7.16-1.46-2.77-4-3.3-6.86-2.66s-2.06,3-2.15,4.88c-.17,4-.73,8-.14,12,.38,2.57-.49,4.15-3.49,4.07-4.66-.12-9.32-.11-14,0-2.66.06-3.4-1.19-3.4-3.65q.06-29.44,0-58.91c0-2.75,1-3.82,3.8-3.82,8.65,0,17.3-.47,25.94-.31,10.63.2,21.51.14,28.78,10.11l.17.16c.84,2.16,1.77,4.29,2.5,6.48C544.57,134,541.28,140.92,537.86,147.8ZM508.62,140a48.8,48.8,0,0,0,7.25-.73A7.22,7.22,0,0,0,520.29,128c-1.89-2.92-15.53-4.81-18.18-2.5-.24.21-.57.46-.63.74a26.35,26.35,0,0,0,.33,12.28C502.52,141.3,506.21,139.18,508.62,140Z"/><path class="cls-1" d="M346,173.79l-9.92-8a13.62,13.62,0,0,0-.95-2.21c-6.57-10.19-7-21.46-4.12-32.54,3.51-13.52,13.6-20.54,27-23.21l2-.11,4,0H366c1.65.2,3.31.35,4.95.63,10.6,1.78,18.9,7,24,16.64.78,1.49,2.48,4,.08,4.68a55.66,55.66,0,0,1-18.72,2.13c-1.14-.07-1.47-1.24-2-2.07-2.86-4.62-7-6.45-12.31-5.46-5.58,1-9,4.25-10.36,10a33.47,33.47,0,0,0-.1,16.22,13.86,13.86,0,0,0,23.09,6.92c1.07-1,2.53-2.1,2-3.7s-2.31-.9-3.54-.94c-8.12-.33-8.12-.3-8-8.36,0-.5.05-1,0-1.5-.29-3,1.05-4.13,4.06-4.08,8.49.13,17,.1,25.46,0,2.22,0,3.5.68,3.59,3q0,4,0,8v16c0,.65,0,1.3,0,2-.06,1.82-.1,3.64-.18,5.46,0,1,.15,2.35-1.1,2.41a64.6,64.6,0,0,1-10.41,0c-3-.34-.58-3.9-2.86-5.57-6.16,5.88-13.88,7.39-22.24,7.16C356,177.14,351,175.45,346,173.79Z"/><path class="cls-1" d="M226,171.85v-4l0-2c0-2,0-4,0-6,0-1.33,0-2.65,0-4,1.1-4.12-.1-5.91-4.7-5.4a58.82,58.82,0,0,1-11.94.07c-3.7-.35-4.77,1.23-4.72,4.5.08,5.48,0,11,.14,16.45.07,3-.65,4.69-4.17,4.49-5.47-.31-11-.24-16.44-.33l-.25-1.77c0-2.35,0-4.7,0-7V117.9a13,13,0,0,0,.17-3c-.73-4.51,1.24-5.86,5.56-5.46a74.12,74.12,0,0,0,10.95,0c3-.16,4.29.85,4.18,4-.14,3.81,0,7.63.07,11.45.08,10.3-.95,9,9.05,9,12.46,0,12.46-.06,12.36-12.32-.1-11.86-.1-11.86,11.68-11.9,9.29,0,9.24,0,9.27,9,0,17.45.11,34.91.29,52.36,0,3.53-1,5.25-4.82,5a83.77,83.77,0,0,0-12-.05C227.43,176.18,226.06,174.94,226,171.85Z"/><path class="cls-1" d="M253.85,137.84c.07-1,.13-2,.2-3a48.83,48.83,0,0,1,10-19h0L274.13,110l0,0c4.39-.31,8.47-2.43,12.95-2.25,13.74-.27,25.13,4.26,32.9,16.16.37,1.25.64,2.55,1.13,3.75,5.79,14.12,2.61,31.66-7.48,41.06-6.64,6.19-14.93,8.13-23.58,9.15h-2c-1.81-1.06-3.87-.64-5.8-.91-11.86-1.67-20.48-7.73-25.49-18.67C253.78,151.76,253.94,144.77,253.85,137.84Zm48.88,3.7c-.13-1.23-.29-3.89-.73-6.5a13.28,13.28,0,0,0-12.81-11.12c-6.68-.16-11.63,3.72-13.31,10.32a34.67,34.67,0,0,0,.23,17.72,12.57,12.57,0,0,0,14,9.34C298.73,160.15,302.63,154.5,302.73,141.54Z"/><path class="cls-1" d="M437,163.94l-6,0c-2.46-.68-3.51.49-4.35,2.74-3.45,9.25-3.52,9.22-13.58,9.24-1.66,0-3.32,0-5,0-5.82-.07-5.87-.09-4-5.42,6.56-19.14,13.25-38.24,19.68-57.43.93-2.78,2.3-3.67,5-3.57,4.15.16,8.32.13,12.48.13,12,0,12,0,15.93,11.14,5.89,16.92,11.53,33.94,17.53,50.83,1.36,3.8.37,4.55-3.22,4.38a105.89,105.89,0,0,0-13,0c-3.57.29-5-1.39-6-4.44-2.59-7.94-2.67-7.92-11-7.88C440,163.71,438.48,163.86,437,163.94Zm2.06-37.61c-2.84,5-3.35,9.32-4.58,13.4-3.39,11.2-5.31,10.06,7.76,10,.33,0,.66,0,1,0,2.31.1,3-1.09,2.35-3.12C443.55,140.2,441.46,133.82,439.05,126.33Z"/><path class="cls-1" d="M411.94,52.93c0-.46,0-.91,0-1.37A29.89,29.89,0,0,0,413,47.78a32.89,32.89,0,0,1,9.2-18c13.1-13.54,37.08-11.08,48.05,4.32,1.6,2.26,1.94,5.33,4.56,6.89.22,1.7-.6,3.58.83,5.09.68,8.94,1.5,17.86-1.61,26.59a30.74,30.74,0,0,1-28.76,20.63c-14.62.1-25.39-7-30.22-19.85C412.57,66.81,412,59.92,411.94,52.93Zm55.58,3.74c.35-3.43-.81-7.48-1.76-11.5a21.06,21.06,0,0,0-18.48-16.35c-10.11-1.25-17.55,2.48-22.15,11.44-5.23,10.21-5,20.71-1.22,31.33A20.7,20.7,0,0,0,443.09,85.7c9.71.33,17.45-4.37,21.15-12.75A40,40,0,0,0,467.52,56.67Z"/><path class="cls-1" d="M184,64.89c-.06-1-.11-2-.17-3,.06-3-.1-6,.23-8.94C186,35.67,194.68,23.12,213,21.11,220.89,20.24,228,23,235,26.06l-.05,0q4.51,5,9,10l0,0c2.44,7.46,4.89,14.91,4.3,22.94-.07,2.3-.15,4.6-.22,6.89-.57,1.56-1.23,3.09-1.68,4.68C239,96.48,208.94,98,195.09,85.68,188.72,80,186.91,72.25,184,64.89Zm55.09-8.08a36.52,36.52,0,0,0-1.32-10.88c-2.31-10-9.87-16.49-19.5-17.14C207,28,200,32.6,195.76,42.85c-3.29,8-3.46,16.22-1.52,24.49,2.45,10.45,9.09,16.74,18.73,18.18a21.6,21.6,0,0,0,22.26-10.9C238.4,69.11,239,63,239.13,56.81Z"/><path class="cls-1" d="M319.81,47.86C323.6,33.6,331.28,23.46,347,21.12A31.06,31.06,0,0,1,378.32,36c1.84,3.12.64,4.26-2.12,4.92a7.09,7.09,0,0,1-7.61-2.47c-12.27-15-30.73-12.56-37.4,5.47-3.85,10.4-3.6,21.36,2.28,31.31,8.21,13.91,27.47,13.59,35.58-.32,1.64-2.82,2.35-6.88,7.2-6.33,3.62.42,5.07,1.76,3.73,5.55-3.7,10.44-14.6,18.67-25.7,19.13-15,.61-26.12-5.1-32.08-19.39a9,9,0,0,0-2.06-6.07h0C319.75,61.15,319,54.52,319.81,47.86Z"/><path class="cls-1" d="M259.28,57.14c0-9.82.1-19.64,0-29.46-.06-3.85.85-5.75,5.29-5.57,8.14.34,16.31-.15,24.46.14,7.61.28,14.76,1.77,19.53,8.89,5,7.46,4.64,15,1.3,22.74-3,6.95-8.89,9.77-16.24,10.4a148.68,148.68,0,0,1-19.45.35c-4.55-.2-5.85,1.58-5.68,5.8.24,5.82-.21,11.67.12,17.47.23,4.21-2.27,3.9-5,4-3.24.18-4.44-1.14-4.4-4.37.12-10.15,0-20.3,0-30.44Zm8.93-14c0,3.48.06,7,0,10.45-.05,2.19.64,3.5,3.07,3.44,7.11-.17,14.26.66,21.34-.74,6.67-1.32,9.75-4.91,10.26-12,.48-6.65-2.58-11.18-8.73-13.3-4.22-1.46-8.54-1-12.83-1C268.24,29.89,268.23,29.93,268.21,43.12Z"/><path class="cls-1" d="M391.87,56.44c0-9.65,0-19.3,0-28.95,0-2.61-.62-5.39,3.77-5.29,4,.1,5.16,1.87,5.15,5.52-.06,13.31,0,26.62,0,39.93,0,6.66-.09,13.32,0,20,0,2.79-.74,4.31-4,4.22s-5-.74-5-4.44C392,77.08,391.88,66.76,391.87,56.44Z"/><path class="cls-2" d="M244,36q-4.51-5-9-10"/><path class="cls-2" d="M274.13,110l-10.08,5.94"/><path class="cls-2" d="M183.89,166.84c0,2.35,0,4.7,0,7"/><path class="cls-2" d="M226,159.86c0,2,0,4,0,6"/><path class="cls-1" d="M534,75.73c1.35-1.49.83-3.22.84-4.8,0-14.15,0-28.3.08-42.45,0-2.59-1.09-5.94,3.7-5.95,4.43,0,4.55,2.55,4.55,5.89,0,18.64.19,37.28.18,55.93,0,2.57,1.41,6.16-2.39,7.24a8.21,8.21,0,0,1-9.31-3.22c-3.36-4.73-6.45-9.65-9.66-14.48-8.26-12.41-16.53-24.81-26-37.1V46.4c0,13.49,0,27,0,40.45,0,2.65.17,5-3.7,4.91-3.55-.07-4.48-1.63-4.47-4.94,0-19.8-.09-39.61-.12-59.42,0-4.8,1.81-6,6.58-4.88,3.73.9,5.81,3.64,7.75,6.58Q516,50.07,529.86,71C531,72.73,531.69,74.93,534,75.73Z"/><path class="cls-1" d="M446.19,6.07c2.93-3.59,6.75-2.06,10.34-2.31.32,2.92-2.52,3.81-2.68,6-1.9,1-2.38,3.09-3.54,4.64-1.35,1.81-2.88,3.15-5.14,3.41-1.12.12-2.55.42-3.25-.57s-.05-2.27.55-3.23C444.05,11.52,445.83,9.13,446.19,6.07Z"/></g></g></svg>