<svg xmlns="http://www.w3.org/2000/svg" viewBox="0 0 545.98 203.46"><defs><style>.cls-1{fill:#fefefd;}.cls-2{fill:#f6580a;}.cls-3{fill:#fbeddc;}</style></defs><g id="Capa_2" data-name="Capa 2"><g id="Capa_1-2" data-name="Capa 1"><path class="cls-1" d="M244,38.12c.17-6.44-1.68-8.48-9-10l.05,0c-5.55-6.5-13-6.47-20.66-6.24-12.35.37-22,4.23-27.88,16.37a43,43,0,0,0-4.36,22.2c.08,1.46-.29,3.12,1.81,3.54.06,1,.11,2,.17,3-1.46,4.85,1.14,8.7,3.07,12.75,2.92,6.11,6.41,11.37,13,14.48,3.58,1.69,7.18.91,10.48,2,6.29,2.15,12.64.38,18.25-.92C239,93,250.71,79.17,248,67.93l.22-6.89c.85-.2,1.68-.62,1.69-1.54.07-5.1.78-10.37-.29-15.24-.43-1.9-2.32-5.48-5.7-6.16ZM320.14,69.9C320.56,72,318.35,75,322.2,76c6,14.29,17.12,20,32.08,19.39,11.1-.45,22-8.68,25.7-19.12,1.34-3.79-.11-5.14-3.73-5.55-4.85-.55-5.56,3.51-7.2,6.32-8.11,13.92-27.37,14.24-35.58.33-5.88-10-6.13-20.91-2.28-31.31,6.67-18,25.13-20.45,37.4-5.47A7.09,7.09,0,0,0,376.2,43c2.76-.66,4-1.8,2.12-4.92A31,31,0,0,0,347,23.24C331.28,25.57,323.6,35.72,319.81,50c-2.61-.24-4,.65-3.81,3.58s-.17,5.94.1,8.87,1,5.92,4.06,7.48ZM445.8,7.84c-1.32,0-2.95.5-3.91-.09-2.84-1.76-3.66-1.55-4,2.08C437.29,15,434,19,430.38,22.62A3.23,3.23,0,0,1,427.84,24c-2.7-.29-4,1.83-5.91,3-5.95,3.78-7.51,10.2-9.54,16.06-1.1,3.15-3.9,7-.43,10.62,0,.45,0,.91,0,1.36-3.56,0-4.52,2.73-3.73,5.09,2.29,6.84,2,14.58,6.18,20.64,2.23,3.18,3.69,7.45,6.87,9.36,5.23,3.14,10.55,5.72,17.25,6.59,7.26.94,13.64,2.07,20-2.15,1.2-.79,3.21-2.08,3.9-1.64,4.89,3.09,5-1.84,6.55-3.84a15.83,15.83,0,0,0,2.5-3.53c1.36-3.68,6.29-4.86,6.42-9,.25-8.31.09-16.63.08-25,0-1.65.24-3.53-2.34-3.46-1.43-1.51-.61-3.39-.83-5.1,1.48-3.41-1.75-12.6-5.65-14.51-2-1-2.64-2.45-3.88-3.82-1.84-2-2.95-6.26-7.75-3.63-2.2,1.21-3.79-1.68-4-4a22.31,22.31,0,0,1,.64-4.88c2.76-1.3,4.28,2.2,6.85,1.76,1.12-.19,2.43,0,2.73-1.48.21-1-.08-2.34-1.25-2.23-4.43.41-4.43-2.35-4.64-5.55-.23-3.37-3.87-3.14-6-4.38s-3,1-3.9,2.64S445.76,5.87,445.8,7.84ZM.19,133.5h0c0,6.66.11,13.32,0,20a5.54,5.54,0,0,0,3.22,5.6c4.5,2.47,8.93,5.07,13.37,7.64,19.82,11.46,39.61,23,59.48,34.33,2.22,1.27,4.25,3.63,7.64,1.65,25.08-14.6,50.25-29,75.4-43.5a5.91,5.91,0,0,0,3.35-5.58q-.09-19.74,0-39.46c0-3.27-1.42-4.26-4.54-4.14a133.23,133.23,0,0,1-15.48,0c-3.86-.3-4.92,1.07-4.84,4.69.18,8,0,16,.08,24a6,6,0,0,1-3.37,6Q109.64,158.85,85,173.28a6.54,6.54,0,0,1-7.38-.1c-16.06-9.33-32.12-18.66-48.26-27.83A7.58,7.58,0,0,1,25,137.71c.2-7.65-.15-15.32.13-23,.15-3.91-1.4-4.89-5-4.74-5.15.22-10.33.25-15.48,0-3.42-.15-4.75.91-4.61,4.49C.37,120.84.19,127.17.19,133.5ZM.18,71c0,6.66.12,13.33,0,20-.08,3,1,4.2,4,4.12,5.32-.15,10.66-.28,16,0,4.1.2,5.13-1.56,5-5.32-.2-7.82,0-15.66-.09-23.48a6.17,6.17,0,0,1,3.4-6.07q24.39-14,48.69-28.11c3.07-1.81,5.5-1.83,8.6,0q23.78,14.07,47.8,27.72c3.12,1.78,4.54,3.72,4.39,7.43-.3,7.82,0,15.65-.18,23.48-.06,3.16.93,4.49,4.3,4.33a115.19,115.19,0,0,1,15,.08c4.6.38,5.62-1.51,5.54-5.72-.23-11.65-.33-23.32,0-35,.16-4.8-1.33-7.59-5.52-10Q121.41,24.28,86,3.55c-3.36-2-6-1.88-9.24.06-6.36,3.88-12.84,7.58-19.3,11.3C40.17,24.84,22.94,34.79,5.63,44.62,1.85,46.76-.42,49.13.06,54,.62,59.62.19,65.33.18,71Zm529.9-13c-2.61-.89-1.64-3.56-4.51-3.59s-9.78,1.9-6.91-5.94a.88.88,0,0,0-.42-.71c-6.38-.68-5-8.18-9.41-10.76-1.63-1-.78-2.66,1.28-3a1.86,1.86,0,0,0,1.69-2.5c-.32-1.55-1.63-.51-2.31-.83-3.43-1.59-8.91-1.06-8.16-7.33a1,1,0,0,0-1.25-1.11c-4.62,1.87-9.1-.95-13.76-.31-3,.42-4.64.84-4.4,4.27.07,1,1.12,3.85-1.54,3-4.14-1.28-1.74.68-1.53,2.2.55,4.08,5.21,5.95,5.18,10.32-.07,9.32.64,18.7-.21,27.94-.81,8.81,3.39,17.44.37,26.2a1.45,1.45,0,0,0,1.64,1.94c5-1.23,10.29-1.36,14.43-5.42,3.17-3.1,3.05-5.52.13-8.36-.92-.89-2.71-1.44-2.31-3,1.64-6.31-2.09-12.75,3.08-19.56,3.36-4.43,4.9-1.9,6.17-.81,3.11,2.68,7.07,5,6.94,10.24,0,1.84,1.32,3.68,2.78,5.16s2.73,2.58,3.06,4.88c.44,3-2.85,2.62-3.65,4.48,2.38,1,4.58.29,6.69.59,3.25.46,6.33,2.73,5.79,5.51-1.14,5.91,1.73,6.56,6.16,6.49.87,0,2.12-.32,2.24,1.39-1.94,1.47-4.78-.25-7,1.54,2.54.84,8.63,1.31,9.86.95,2.83-.83,1-3.54,2.1-5.06a16.29,16.29,0,0,0,1.55-1.92c1.14-2.22,2.61-4.65,1.92-7.07-2.28-8,.16-16-.6-24.13-1-10.9-.28-22-.22-32.94a21.32,21.32,0,0,0-1-6.36c-.29-1-.39-2.17-1.63-2.18-3.24,0-8.69-1.48-9.21.66-.84,3.45-5,3.29-5,6.5a5.42,5.42,0,0,0,.24,1.93C531.85,39.93,529.11,48.69,530.08,58Zm-270.8,1.3h-.1c0,10.15.08,20.3,0,30.45,0,3.22,1.16,4.55,4.4,4.37,2.75-.15,5.25.15,5-4-.33-5.81.12-11.65-.12-17.47-.17-4.23,1.13-6,5.68-5.8a148.68,148.68,0,0,0,19.45-.35c7.35-.63,13.22-3.46,16.24-10.41,3.34-7.68,3.7-15.28-1.3-22.73-4.77-7.12-11.92-8.62-19.53-8.89-8.15-.3-16.32.2-24.46-.14-4.44-.19-5.35,1.71-5.29,5.57C259.38,39.61,259.28,49.43,259.28,59.25Zm132.6-.69c0,10.32.08,20.64-.05,31,0,3.7,1.84,4.36,5,4.45s4-1.43,4-4.22c-.06-6.66,0-13.31,0-20,0-13.31-.09-26.62,0-39.94,0-3.64-1.15-5.41-5.15-5.51-4.39-.11-3.77,2.68-3.77,5.28C391.85,39.26,391.87,48.91,391.88,58.56Z"/><path class="cls-2" d="M.19,133.5c0-6.33.18-12.66-.06-19C0,110.94,1.32,109.88,4.74,110c5.15.22,10.33.19,15.48,0,3.55-.15,5.1.83,5,4.74-.28,7.65.07,15.32-.13,23a7.58,7.58,0,0,0,4.28,7.64c16.14,9.17,32.2,18.5,48.26,27.83a6.54,6.54,0,0,0,7.38.1q24.66-14.46,49.53-28.58a6,6,0,0,0,3.37-6c-.1-8,.1-16-.08-24-.08-3.62,1-5,4.84-4.69a133.23,133.23,0,0,0,15.48,0c3.12-.12,4.57.87,4.54,4.14q-.12,19.72,0,39.46a5.91,5.91,0,0,1-3.35,5.58c-25.15,14.47-50.32,28.9-75.4,43.5-3.39,2-5.42-.38-7.64-1.65-19.87-11.35-39.66-22.87-59.48-34.33-4.44-2.57-8.87-5.17-13.37-7.64a5.54,5.54,0,0,1-3.22-5.6c.16-6.66,0-13.32,0-20Z"/><path class="cls-2" d="M.19,71c0-5.66.43-11.37-.13-17-.48-4.88,1.79-7.25,5.57-9.39,17.31-9.83,34.54-19.78,51.78-29.71,6.46-3.72,12.94-7.42,19.3-11.3,3.19-1.94,5.88-2,9.24-.06q35.46,20.69,71.17,41c4.19,2.37,5.68,5.16,5.52,10-.37,11.65-.27,23.32,0,35,.08,4.21-.94,6.1-5.54,5.72a115.19,115.19,0,0,0-15-.08c-3.37.16-4.36-1.17-4.3-4.33.15-7.83-.12-15.66.18-23.48.15-3.71-1.27-5.65-4.39-7.43q-24-13.65-47.8-27.72c-3.1-1.84-5.53-1.82-8.6,0Q52.92,46.32,28.48,60.22a6.17,6.17,0,0,0-3.4,6.07c.11,7.82-.11,15.66.09,23.48.1,3.76-.93,5.52-5,5.32-5.32-.27-10.66-.14-16,0C1.13,95.18.05,94,.13,91,.3,84.32.18,77.65.19,71Z"/><path class="cls-2" d="M537.86,149.92a27.34,27.34,0,0,1-3.21,2.21c-3.83,1.93-3,4.16-1,7.1,3.31,4.93,6.14,10.19,9.31,15.22,1.86,3,.75,3.69-2.24,3.66-5.47-.05-10.94-.06-16.4.13a5.51,5.51,0,0,1-5.79-3.51c-1.28-2.68-2.91-5.18-4.39-7.76-.44-2.69-2.1-4.83-3.33-7.15-1.46-2.77-4-3.3-6.86-2.67s-2.06,3-2.15,4.89c-.17,4-.73,8-.14,12,.38,2.57-.49,4.14-3.49,4.07q-7-.18-14,0c-2.66.06-3.4-1.2-3.4-3.65q.06-29.46,0-58.91c0-2.75,1-3.82,3.8-3.82,8.65,0,17.3-.47,25.94-.31,10.63.2,21.51.14,28.78,10.11l.17.16c.84,2.16,1.77,4.28,2.5,6.48C544.57,136.12,541.28,143,537.86,149.92Zm-29.24-7.82a48.77,48.77,0,0,0,7.25-.72,7.22,7.22,0,0,0,4.42-11.29c-1.89-2.92-15.53-4.81-18.18-2.5-.24.21-.57.46-.63.74a26.35,26.35,0,0,0,.33,12.28C502.52,143.41,506.21,141.29,508.62,142.1Z"/><path class="cls-2" d="M346,175.91l-9.92-8a13.62,13.62,0,0,0-.95-2.21c-6.57-10.19-7-21.46-4.12-32.54,3.51-13.52,13.6-20.55,27-23.21l2-.11,4,0H366c1.65.21,3.31.36,4.95.63,10.6,1.79,18.9,7,24,16.65.78,1.48,2.48,4,.08,4.67a55.41,55.41,0,0,1-18.72,2.14c-1.14-.07-1.47-1.24-2-2.07-2.86-4.62-7-6.45-12.31-5.46-5.58,1-9,4.24-10.36,10a33.47,33.47,0,0,0-.1,16.22,13.86,13.86,0,0,0,23.09,6.92c1.07-1,2.53-2.11,2-3.7s-2.31-.9-3.54-1c-8.12-.32-8.12-.29-8-8.35,0-.5.05-1,0-1.5-.29-3,1.05-4.13,4.06-4.08,8.49.13,17,.1,25.46,0,2.22,0,3.5.68,3.59,3q0,4,0,8v16c0,.65,0,1.3,0,2-.06,1.82-.1,3.64-.18,5.46,0,1,.15,2.34-1.1,2.41a64.6,64.6,0,0,1-10.41,0c-3-.34-.58-3.9-2.86-5.57-6.16,5.87-13.88,7.38-22.24,7.15C356,179.25,351,177.57,346,175.91Z"/><path class="cls-2" d="M226,174v-4l0-2q0-3,0-6c0-1.33,0-2.66,0-4,1.1-4.12-.1-5.91-4.7-5.4a58.11,58.11,0,0,1-11.94.06c-3.7-.35-4.77,1.23-4.72,4.5.08,5.49,0,11,.14,16.45.07,3-.65,4.69-4.17,4.49-5.47-.31-11-.23-16.44-.32l-.25-1.78c0-2.35,0-4.69,0-7V120a13,13,0,0,0,.17-3c-.73-4.52,1.24-5.87,5.56-5.46a75.51,75.51,0,0,0,10.95,0c3-.16,4.29.85,4.18,4-.14,3.81,0,7.63.07,11.44.08,10.31-.95,9,9.05,9,12.46,0,12.46-.06,12.36-12.32-.1-11.86-.1-11.86,11.68-11.91,9.29,0,9.24,0,9.27,9,0,17.45.11,34.9.29,52.35,0,3.53-1,5.25-4.82,5a83.77,83.77,0,0,0-12-.06C227.43,178.3,226.06,177.05,226,174Z"/><path class="cls-2" d="M253.85,140c.07-1,.13-2,.2-3a48.83,48.83,0,0,1,10-19h0l10.08-5.93h0c4.39-.31,8.47-2.43,12.95-2.24,13.74-.27,25.13,4.25,32.9,16.15a38.89,38.89,0,0,0,1.13,3.76c5.79,14.12,2.61,31.65-7.48,41.05C307,177,298.68,179,290,180h-2c-1.81-1.06-3.87-.64-5.8-.91-11.86-1.67-20.48-7.73-25.49-18.68C253.78,153.88,253.94,146.89,253.85,140Zm48.88,3.69c-.13-1.23-.29-3.88-.73-6.49A13.27,13.27,0,0,0,289.19,126c-6.68-.16-11.63,3.72-13.31,10.32a34.67,34.67,0,0,0,.23,17.72,12.58,12.58,0,0,0,14,9.34C298.73,162.27,302.63,156.62,302.73,143.65Z"/><path class="cls-2" d="M437,166.06h-6c-2.46-.67-3.51.49-4.35,2.75-3.45,9.25-3.52,9.22-13.58,9.24-1.66,0-3.32,0-5,0-5.82-.07-5.87-.1-4-5.43,6.56-19.13,13.25-38.24,19.68-57.42.93-2.78,2.3-3.67,5-3.57,4.15.16,8.32.12,12.48.13,12,0,12,0,15.93,11.13,5.89,16.93,11.53,34,17.53,50.83,1.36,3.81.37,4.56-3.22,4.39a103.93,103.93,0,0,0-13,0c-3.57.28-5-1.39-6-4.44-2.59-7.94-2.67-7.93-11-7.89C440,165.83,438.48,166,437,166.06Zm2.06-37.61c-2.84,5-3.35,9.32-4.58,13.4-3.39,11.19-5.31,10.06,7.76,10,.33,0,.66,0,1,0,2.31.1,3-1.09,2.35-3.13C443.55,142.32,441.46,135.93,439.05,128.45Z"/><path class="cls-2" d="M411.94,55c0-.45,0-.91,0-1.36A30.36,30.36,0,0,0,413,49.9a32.89,32.89,0,0,1,9.2-18c13.1-13.54,37.08-11.09,48.05,4.32,1.6,2.25,1.94,5.33,4.56,6.88.22,1.71-.6,3.59.83,5.1.68,8.93,1.5,17.85-1.61,26.59A30.74,30.74,0,0,1,445.27,95.4c-14.62.1-25.39-7-30.22-19.85C412.57,68.93,412,62,411.94,55Zm55.58,3.75c.35-3.43-.81-7.49-1.76-11.5a21.06,21.06,0,0,0-18.48-16.36c-10.11-1.24-17.55,2.49-22.15,11.45-5.23,10.2-5,20.71-1.22,31.33a20.71,20.71,0,0,0,19.18,14.11c9.71.33,17.45-4.37,21.15-12.75A40,40,0,0,0,467.52,58.79Z"/><path class="cls-2" d="M184,67c-.06-1-.11-2-.17-3,.06-3-.1-6,.23-9C186,37.79,194.68,25.24,213,23.22c7.87-.86,14.94,1.93,21.94,5l-.05,0q4.51,5,9,10l0,0c2.44,7.46,4.89,14.91,4.3,22.94-.07,2.3-.15,4.59-.22,6.89-.57,1.56-1.23,3.09-1.68,4.67-7.31,26-37.39,27.54-51.24,15.2C188.72,82.12,186.91,74.36,184,67Zm55.09-8.08A36.63,36.63,0,0,0,237.81,48c-2.31-9.94-9.87-16.48-19.5-17.13C207,30.15,200,34.72,195.76,45c-3.29,8.05-3.46,16.22-1.52,24.48,2.45,10.46,9.09,16.75,18.73,18.18a21.59,21.59,0,0,0,22.26-10.89C238.4,71.22,239,65.1,239.13,58.93Z"/><path class="cls-2" d="M319.81,50C323.6,35.72,331.28,25.57,347,23.24A31,31,0,0,1,378.32,38.1c1.84,3.12.64,4.26-2.12,4.92a7.09,7.09,0,0,1-7.61-2.47c-12.27-15-30.73-12.56-37.4,5.47-3.85,10.4-3.6,21.36,2.28,31.31,8.21,13.91,27.47,13.59,35.58-.33,1.64-2.81,2.35-6.87,7.2-6.32,3.62.41,5.07,1.76,3.73,5.55-3.7,10.44-14.6,18.67-25.7,19.12-15,.62-26.12-5.1-32.08-19.39a9,9,0,0,0-2.06-6.06h0C319.75,63.27,319,56.64,319.81,50Z"/><path class="cls-2" d="M259.28,59.25c0-9.82.1-19.64,0-29.45-.06-3.86.85-5.76,5.29-5.57,8.14.34,16.31-.16,24.46.14,7.61.27,14.76,1.77,19.53,8.89,5,7.45,4.64,15.05,1.3,22.73-3,6.95-8.89,9.78-16.24,10.41a148.68,148.68,0,0,1-19.45.35c-4.55-.2-5.85,1.57-5.68,5.8.24,5.82-.21,11.66.12,17.47.23,4.2-2.27,3.9-5,4-3.24.18-4.44-1.15-4.4-4.37.12-10.15,0-20.3,0-30.45Zm8.93-14c0,3.48.06,7,0,10.45-.05,2.19.64,3.5,3.07,3.44,7.11-.17,14.26.66,21.34-.74,6.67-1.32,9.75-4.91,10.26-12,.48-6.65-2.58-11.17-8.73-13.29-4.22-1.46-8.54-1-12.83-1C268.24,32,268.23,32.05,268.21,45.24Z"/><path class="cls-2" d="M391.87,58.56c0-9.65,0-19.3,0-29,0-2.6-.62-5.39,3.77-5.28,4,.1,5.16,1.87,5.15,5.51-.06,13.32,0,26.63,0,39.94,0,6.66-.09,13.31,0,20,0,2.79-.74,4.31-4,4.22s-5-.75-5-4.45C392,79.2,391.88,68.88,391.87,58.56Z"/><path class="cls-3" d="M445.8,7.84c0-2,1.36-3.28,2.21-4.85s1.82-3.86,3.9-2.64,5.73,1,6,4.38c.21,3.2.21,6,4.64,5.55,1.17-.11,1.46,1.18,1.25,2.23C463.46,14,462.15,13.8,461,14c-2.57.44-4.09-3.06-6.85-1.76l-.33-.34c.16-2.2,3-3.1,2.68-6-3.59.25-7.41-1.28-10.34,2.3Z"/><path class="cls-3" d="M183.89,169c0,2.35,0,4.69,0,7C180.93,173.66,181,171.31,183.89,169Z"/><path class="cls-3" d="M226,162q0,3,0,6C223,166,223,164,226,162Z"/><path class="cls-3" d="M364,109.83l-4,0Q362,105.9,364,109.83Z"/><path class="cls-3" d="M226,170v2c-.71-.17-1.67-.19-1.44-1.23C224.63,170.41,225.49,170.23,226,170Z"/><path class="cls-1" d="M398.17,168c4.66-.47,4.1,2.32,3.45,5.36-2.47,0-1-3.65-3.46-3.41C398.16,169.31,398.17,168.66,398.17,168Z"/><path class="cls-1" d="M302.73,143.65c-.1,13-4,18.62-12.66,19.77a12.58,12.58,0,0,1-14-9.34,34.67,34.67,0,0,1-.23-17.72c1.68-6.6,6.63-10.48,13.31-10.32A13.27,13.27,0,0,1,302,137.16C302.44,139.77,302.6,142.42,302.73,143.65Z"/><path class="cls-1" d="M467.52,58.79a40,40,0,0,1-3.28,16.28c-3.7,8.38-11.44,13.08-21.15,12.75a20.71,20.71,0,0,1-19.18-14.11c-3.81-10.62-4-21.13,1.22-31.33,4.6-9,12-12.69,22.15-11.45a21.06,21.06,0,0,1,18.48,16.36C466.71,51.3,467.87,55.36,467.52,58.79Z"/><path class="cls-1" d="M239.13,58.93c-.17,6.17-.73,12.29-3.9,17.81A21.59,21.59,0,0,1,213,87.63c-9.64-1.43-16.28-7.72-18.73-18.18C192.3,61.19,192.47,53,195.76,45,200,34.72,207,30.15,218.31,30.91c9.63.65,17.19,7.19,19.5,17.13A36.63,36.63,0,0,1,239.13,58.93Z"/><path class="cls-2" d="M534,77.85c1.35-1.49.83-3.23.84-4.81,0-14.15,0-28.29.08-42.44,0-2.59-1.09-6,3.7-6,4.43,0,4.55,2.56,4.55,5.9,0,18.64.19,37.28.18,55.92,0,2.58,1.41,6.17-2.39,7.25a8.21,8.21,0,0,1-9.31-3.22c-3.36-4.73-6.45-9.66-9.66-14.49-8.26-12.4-16.53-24.8-26-37.09v9.61c0,13.48,0,27,0,40.45,0,2.64.17,5-3.7,4.9-3.55-.06-4.48-1.62-4.47-4.93,0-19.81-.09-39.61-.12-59.42,0-4.81,1.81-6,6.58-4.89,3.73.91,5.81,3.65,7.75,6.59q13.87,21,27.77,41.92C531,74.85,531.69,77,534,77.85Z"/><path class="cls-1" d="M529,63.05c1.31,1.8,1.31,3.1,0,4.92C527.71,66.15,527.65,64.86,529,63.05Z"/><path class="cls-1" d="M500,50c-.23,1.15.61,2.6-.89,3.35-.15.08-.82-.41-.91-.74-.39-1.48.11-2.47,1.77-2.63Z"/><path class="cls-1" d="M500,50c.13-.73.11-1.59,1.22-1.51a.44.44,0,0,1,.31.32c.08,1.1-.76,1.1-1.5,1.21Z"/><path class="cls-1" d="M268.21,45.24c0-13.19,0-13.23,13.09-13.16,4.29,0,8.61-.46,12.83,1,6.15,2.12,9.21,6.64,8.73,13.29-.51,7.11-3.59,10.7-10.26,12-7.08,1.4-14.23.57-21.34.74-2.43.06-3.12-1.25-3.07-3.44C268.27,52.21,268.21,48.72,268.21,45.24Z"/><path class="cls-1" d="M383.36,138c-5.4,0-10.8.18-16.18-.06-3.67-.16-6.1.69-5.09,4.85,1.19,4.93-4.25,5.19-6,8.77,3.9-.11,5.73,1.75,6.32,5.07.2,1.12,1,2.3-.38,3a2.85,2.85,0,0,1-3.26-.49c-3.7-3.16-6.34-6.86-6.77-12-.37-4.42,1.79-8.31,2.73-12.38.54-2.37,3.15-5.89,7.67-4.34,3.46,1.18,9.2-2.27,9.47,5.05a11.59,11.59,0,0,0,2.8.4c2.88.28,5.86-.52,8.68.51Z"/><path class="cls-1" d="M395.91,136.71c-.11,1.22-1.47,1.93-3,1.93-1,0-2.8-.49-2.33-1.84.55-1.58,2.52-2,4.09-2.39C395.63,134.18,396,135.15,395.91,136.71Z"/><path class="cls-1" d="M371.38,159.41c-2.33.09-3,2.69-5.06,1.4-.28-.17-.29-1.4,0-1.77C367.73,157.36,369.2,157.68,371.38,159.41Z"/><path class="cls-1" d="M387.68,113.06l-.61.5-.67-.87c.25-.12.52-.35.74-.31S387.46,112.77,387.68,113.06Z"/><path class="cls-1" d="M387.64,138.7c-.12.28-.19.71-.39.79s-.55-.2-.83-.32c.13-.28.19-.71.39-.79S387.36,138.57,387.64,138.7Z"/><path class="cls-1" d="M386.74,134.41l.84.36c-.12.27-.19.71-.38.78s-.55-.19-.82-.31Z"/><path class="cls-2" d="M446.19,8.18c2.93-3.58,6.75-2,10.34-2.3.32,2.91-2.52,3.81-2.68,6-1.9,1-2.38,3.08-3.54,4.64-1.35,1.81-2.88,3.15-5.14,3.4-1.12.13-2.55.42-3.25-.57s-.05-2.27.55-3.22C444.05,13.63,445.83,11.25,446.19,8.18Z"/><path class="cls-1" d="M328.31,148.92a4,4,0,0,1-1.23.57c-.88,0-1-.67-.82-1.29.1-.32.61-.52.94-.77Z"/></g></g></svg>