<svg xmlns="http://www.w3.org/2000/svg" viewBox="0 0 162.65 201.34"><defs><style>.cls-1{fill:#fefefd;}.cls-2{fill:#f6580a;}</style></defs><g id="Capa_2" data-name="Capa 2"><g id="Capa_1-2" data-name="Capa 1"><path class="cls-1" d="M.19,131.38h0c0,6.66.11,13.33,0,20A5.54,5.54,0,0,0,3.38,157c4.5,2.47,8.93,5.07,13.37,7.65,19.82,11.46,39.61,23,59.48,34.33,2.22,1.27,4.25,3.62,7.64,1.64q37.62-21.89,75.4-43.49a5.93,5.93,0,0,0,3.35-5.59q-.09-19.73,0-39.45c0-3.28-1.42-4.27-4.54-4.14a135.48,135.48,0,0,1-15.48,0c-3.86-.29-4.92,1.07-4.84,4.7.18,8,0,16,.08,24a6,6,0,0,1-3.37,6Q109.64,156.72,85,171.16c-2.69,1.58-4.86,1.37-7.38-.1-16.06-9.33-32.12-18.65-48.26-27.83A7.56,7.56,0,0,1,25,135.6c.2-7.66-.15-15.33.13-23,.15-3.92-1.4-4.9-5-4.75-5.15.22-10.33.25-15.48,0-3.42-.15-4.75.92-4.61,4.49C.37,118.72.19,125.05.19,131.38Zm0-62.51c0,6.66.12,13.33,0,20-.08,3,1,4.2,4,4.12,5.32-.15,10.66-.28,16,0,4.1.21,5.13-1.56,5-5.32-.2-7.82,0-15.65-.09-23.48a6.17,6.17,0,0,1,3.4-6.07C44.74,48.79,61,39.47,77.17,30c3.07-1.8,5.5-1.83,8.6,0q23.78,14.09,47.8,27.73c3.12,1.77,4.54,3.71,4.39,7.42-.3,7.82,0,15.66-.18,23.48-.06,3.16.93,4.49,4.3,4.33a117,117,0,0,1,15,.08c4.6.38,5.62-1.51,5.54-5.71-.23-11.66-.33-23.33,0-35,.16-4.8-1.33-7.58-5.52-10Q121.41,22.15,86,1.43c-3.36-1.95-6-1.88-9.24.06-6.36,3.89-12.84,7.58-19.3,11.3C40.17,22.72,22.94,32.67,5.63,42.5,1.85,44.64-.42,47,.06,51.89.62,57.5.19,63.21.18,68.87Z"/><path class="cls-2" d="M.19,131.38c0-6.33.18-12.66-.06-19-.14-3.57,1.19-4.64,4.61-4.49,5.15.22,10.33.19,15.48,0,3.55-.15,5.1.83,5,4.75-.28,7.64.07,15.31-.13,23a7.56,7.56,0,0,0,4.28,7.63c16.14,9.18,32.2,18.5,48.26,27.83,2.52,1.47,4.69,1.68,7.38.1q24.66-14.44,49.53-28.58a6,6,0,0,0,3.37-6c-.1-8,.1-16-.08-24-.08-3.63,1-5,4.84-4.7a135.48,135.48,0,0,0,15.48,0c3.12-.13,4.57.86,4.54,4.14q-.12,19.73,0,39.45a5.93,5.93,0,0,1-3.35,5.59q-37.73,21.69-75.4,43.49c-3.39,2-5.42-.37-7.64-1.64-19.87-11.36-39.66-22.87-59.48-34.33C12.31,162,7.88,159.43,3.38,157a5.54,5.54,0,0,1-3.22-5.6c.16-6.65,0-13.32,0-20Z"/><path class="cls-2" d="M.19,68.87c0-5.66.43-11.37-.13-17C-.42,47,1.85,44.64,5.63,42.5c17.31-9.83,34.54-19.78,51.78-29.71,6.46-3.72,12.94-7.41,19.3-11.3,3.19-1.94,5.88-2,9.24-.06q35.46,20.69,71.17,41c4.19,2.37,5.68,5.15,5.52,10-.37,11.65-.27,23.32,0,35,.08,4.2-.94,6.09-5.54,5.71a117,117,0,0,0-15-.08c-3.37.16-4.36-1.17-4.3-4.33.15-7.82-.12-15.66.18-23.48.15-3.71-1.27-5.65-4.39-7.42q-24-13.65-47.8-27.73c-3.1-1.84-5.53-1.81-8.6,0C61,39.47,44.74,48.79,28.48,58.1a6.17,6.17,0,0,0-3.4,6.07c.11,7.83-.11,15.66.09,23.48.1,3.76-.93,5.53-5,5.32-5.32-.27-10.66-.14-16,0-3,.08-4.11-1.09-4-4.12C.3,82.2.18,75.53.19,68.87Z"/></g></g></svg>