<svg id="visual" viewBox="0 0 1000 940" width="1000" height="940" xmlns="http://www.w3.org/2000/svg" xmlns:xlink="http://www.w3.org/1999/xlink" version="1.1"><rect x="0" y="0" width="1000" height="940" fill="#F7770F"></rect><path d="M0 64L8.3 56.8C16.7 49.7 33.3 35.3 50 31.5C66.7 27.7 83.3 34.3 100 36C116.7 37.7 133.3 34.3 150 33.2C166.7 32 183.3 33 200 39.7C216.7 46.3 233.3 58.7 250 58.3C266.7 58 283.3 45 300 39.2C316.7 33.3 333.3 34.7 350 33.5C366.7 32.3 383.3 28.7 400 33.7C416.7 38.7 433.3 52.3 450 54.5C466.7 56.7 483.3 47.3 500 48.3C516.7 49.3 533.3 60.7 550 64.7C566.7 68.7 583.3 65.3 600 64.8C616.7 64.3 633.3 66.7 650 68C666.7 69.3 683.3 69.7 700 64.3C716.7 59 733.3 48 750 46C766.7 44 783.3 51 800 56.5C816.7 62 833.3 66 850 62.8C866.7 59.7 883.3 49.3 900 45.5C916.7 41.7 933.3 44.3 950 44.8C966.7 45.3 983.3 43.7 991.7 42.8L1000 42L1000 0L991.7 0C983.3 0 966.7 0 950 0C933.3 0 916.7 0 900 0C883.3 0 866.7 0 850 0C833.3 0 816.7 0 800 0C783.3 0 766.7 0 750 0C733.3 0 716.7 0 700 0C683.3 0 666.7 0 650 0C633.3 0 616.7 0 600 0C583.3 0 566.7 0 550 0C533.3 0 516.7 0 500 0C483.3 0 466.7 0 450 0C433.3 0 416.7 0 400 0C383.3 0 366.7 0 350 0C333.3 0 316.7 0 300 0C283.3 0 266.7 0 250 0C233.3 0 216.7 0 200 0C183.3 0 166.7 0 150 0C133.3 0 116.7 0 100 0C83.3 0 66.7 0 50 0C33.3 0 16.7 0 8.3 0L0 0Z" fill="#ffffff" stroke-linecap="round" stroke-linejoin="miter"></path></svg>